<svg xmlns="http://www.w3.org/2000/svg" xmlns:xlink="http://www.w3.org/1999/xlink" viewBox="0 0 1050.79 1050.79"><defs><style>.cls-1{fill:none;}.cls-2{fill:#662d91;}.cls-3{fill:url(#ALMOND_PATTERN_4);}</style><pattern id="ALMOND_PATTERN_4" data-name="ALMOND PATTERN 4" width="144.9" height="171.64" patternTransform="translate(-255.76 -14.16) scale(0.95)" patternUnits="userSpaceOnUse" viewBox="0 0 144.9 171.64"><rect class="cls-1" width="144.9" height="171.64"/><path class="cls-2" d="M109.79,147.45,140.28,179l0,16.91-14.25,0L126,185l-22.15-22.91H99.26l-.06,33.69-14.25,0L85,147.4Z"/><path class="cls-2" d="M35.11,195.84,4.62,164.3l0-16.9,14.25,0,0,10.82L41,181.16h4.61l.06-33.7,14.25,0-.09,48.39Z"/><path class="cls-2" d="M37.34,61.62,67.83,93.16l0,16.9-14.25,0,0-10.83L31.42,76.31H26.81L26.75,110,12.5,110l.09-48.39Z"/><path class="cls-2" d="M107.56,110,77.07,78.48l0-16.9,14.25,0,0,10.83,22.15,22.91h4.61l.06-33.7,14.25,0-.09,48.38Z"/><path class="cls-2" d="M109.79-24.2,140.28,7.34l0,16.9-14.25,0,0-10.83L103.87-9.52H99.26L99.2,24.17,85,24.14,85-24.24Z"/><path class="cls-2" d="M35.11,24.2,4.62-7.34l0-16.9,14.25,0,0,10.83L41,9.52h4.61l.06-33.69,14.25,0-.09,48.38Z"/></pattern></defs><g id="Layer_2" data-name="Layer 2"><g id="Layer_1-2" data-name="Layer 1"><rect class="cls-3" width="1050.79" height="1050.79"/></g></g></svg>