<svg width="155" height="40" viewBox="0 0 155 40" fill="none" xmlns="http://www.w3.org/2000/svg"><path d="M8 3.41253C8 1.52784 9.53469 0 11.4278 0H31.387C33.2801 0 34.8148 1.52784 34.8148 3.41253V36.5875C34.8148 38.4721 33.2801 40 31.387 40H11.4278C9.53465 40 8 38.4721 8 36.5875V3.41253Z" fill="black"></path><path d="M9.19546 24.6655C14.2557 22.9985 21.7337 23 21.7337 23C21.7337 23 24.855 23.0349 26.8368 23.2692C28.9445 23.5184 31.6358 24.0935 31.6358 24.0935C31.6358 24.0935 34.0184 24.4804 37.5669 26.2636C41.1155 28.0468 41.8928 29.7964 41.8928 29.7964C41.8928 29.7964 37.9049 27.3907 33.2411 26.2636C30.1098 25.4228 26.4241 24.7935 21.7337 24.8673C17.5206 24.9336 16.1776 24.8772 11.0035 25.9945C3.60227 27.5926 1 29.83 1 29.83C1 29.83 2.25044 26.9534 9.19546 24.6655Z" fill="#E7E7E8"></path><path d="M8.60714 26.6655C13.9216 24.9985 21.7752 25 21.7752 25C21.7752 25 25.0534 25.0349 27.1347 25.2692C29.3483 25.5184 32.1747 26.0935 32.1747 26.0935C32.1747 26.0935 34.677 26.4804 38.4038 28.2636C42.1306 30.0468 42.947 31.7964 42.947 31.7964C42.947 31.7964 38.7588 29.3907 33.8607 28.2636C30.572 27.4228 26.7013 26.7935 21.7752 26.8673C17.3504 26.9336 15.9401 26.8772 10.506 27.9945C2.73299 29.5926 0 31.83 0 31.83C0 31.83 1.31325 28.9534 8.60714 26.6655Z" fill="black"></path><path d="M57.7915 19.36C58.7675 19.456 59.5835 19.856 60.2395 20.56C60.9115 21.248 61.2475 22.168 61.2475 23.32C61.2475 24.776 60.7675 25.92 59.8075 26.752C58.8635 27.584 57.5595 28 55.8955 28H49.9675V11.2H55.5835C57.2635 11.2 58.5835 11.592 59.5435 12.376C60.5035 13.144 60.9835 14.208 60.9835 15.568C60.9835 17.68 59.9195 18.944 57.7915 19.36ZM55.4635 13.624H52.7275V18.232H55.4635C56.3275 18.232 56.9995 18.032 57.4795 17.632C57.9755 17.216 58.2235 16.648 58.2235 15.928C58.2235 15.192 57.9835 14.624 57.5035 14.224C57.0235 13.824 56.3435 13.624 55.4635 13.624ZM55.8475 25.576C56.6795 25.576 57.3275 25.352 57.7915 24.904C58.2555 24.456 58.4875 23.832 58.4875 23.032C58.4875 22.328 58.2475 21.76 57.7675 21.328C57.2875 20.88 56.6555 20.656 55.8715 20.656H52.7275V25.576H55.8475ZM62.4466 28V16.816H65.0626V18.976C65.2546 18.224 65.6306 17.656 66.1906 17.272C66.7506 16.872 67.3666 16.672 68.0386 16.672C68.4706 16.672 68.8146 16.704 69.0706 16.768V19.168C68.7986 19.136 68.4546 19.12 68.0386 19.12C67.1106 19.12 66.3826 19.464 65.8546 20.152C65.3266 20.824 65.0626 21.792 65.0626 23.056V28H62.4466ZM72.5076 14.656C72.1396 15.024 71.6756 15.208 71.1156 15.208C70.5556 15.208 70.0916 15.024 69.7236 14.656C69.3556 14.272 69.1716 13.808 69.1716 13.264C69.1716 12.72 69.3556 12.264 69.7236 11.896C70.0916 11.512 70.5556 11.32 71.1156 11.32C71.6756 11.32 72.1396 11.512 72.5076 11.896C72.8756 12.264 73.0596 12.72 73.0596 13.264C73.0596 13.808 72.8756 14.272 72.5076 14.656ZM69.7956 28V16.816H72.4116V28H69.7956ZM82.5642 11.2H85.1802V28H82.5642V26.488C82.2442 27.032 81.7402 27.472 81.0522 27.808C80.3802 28.128 79.6922 28.288 78.9882 28.288C77.2442 28.288 75.8922 27.736 74.9322 26.632C73.9722 25.528 73.4922 24.12 73.4922 22.408C73.4922 20.712 73.9962 19.312 75.0042 18.208C76.0122 17.088 77.3642 16.528 79.0602 16.528C79.8122 16.528 80.5002 16.688 81.1242 17.008C81.7482 17.328 82.2282 17.768 82.5642 18.328V11.2ZM79.3722 25.96C80.4442 25.96 81.2602 25.624 81.8202 24.952C82.3962 24.28 82.6842 23.432 82.6842 22.408C82.6842 21.384 82.3962 20.536 81.8202 19.864C81.2602 19.192 80.4442 18.856 79.3722 18.856C78.3642 18.856 77.5642 19.192 76.9722 19.864C76.3962 20.52 76.1082 21.368 76.1082 22.408C76.1082 23.448 76.3962 24.304 76.9722 24.976C77.5642 25.632 78.3642 25.96 79.3722 25.96ZM95.3273 16.816H97.9433V27.52C97.9433 29.76 97.2713 31.368 95.9273 32.344C95.0473 33 93.7673 33.328 92.0873 33.328C90.4553 33.328 89.1433 32.992 88.1513 32.32C87.0153 31.552 86.4233 30.536 86.3753 29.272H89.1113C89.3513 30.536 90.3353 31.168 92.0633 31.168C93.1673 31.168 93.9833 30.896 94.5113 30.352C95.0553 29.824 95.3273 28.944 95.3273 27.712V26.488C95.0073 27.032 94.5033 27.472 93.8153 27.808C93.1433 28.128 92.4553 28.288 91.7513 28.288C90.0553 28.288 88.7113 27.736 87.7193 26.632C86.7433 25.512 86.2553 24.104 86.2553 22.408C86.2553 20.728 86.7673 19.328 87.7913 18.208C88.8313 17.088 90.1753 16.528 91.8233 16.528C92.5753 16.528 93.2633 16.688 93.8873 17.008C94.5113 17.328 94.9913 17.768 95.3273 18.328V16.816ZM92.1353 25.96C93.1593 25.96 93.9673 25.624 94.5593 24.952C95.1513 24.264 95.4473 23.416 95.4473 22.408C95.4473 21.4 95.1513 20.56 94.5593 19.888C93.9673 19.2 93.1593 18.856 92.1353 18.856C91.1593 18.856 90.3673 19.192 89.7593 19.864C89.1673 20.52 88.8713 21.368 88.8713 22.408C88.8713 23.448 89.1673 24.304 89.7593 24.976C90.3673 25.632 91.1593 25.96 92.1353 25.96ZM109.986 21.832C109.986 22.12 109.962 22.6 109.914 23.272H101.61C101.642 24.152 101.93 24.832 102.474 25.312C103.018 25.776 103.77 26.008 104.73 26.008C105.962 26.008 106.794 25.584 107.226 24.736H109.866C109.69 25.776 109.122 26.632 108.162 27.304C107.218 27.96 106.074 28.288 104.73 28.288C102.97 28.288 101.578 27.76 100.554 26.704C99.5304 25.648 99.0184 24.216 99.0184 22.408C99.0184 20.616 99.5224 19.192 100.53 18.136C101.554 17.064 102.922 16.528 104.634 16.528C106.234 16.528 107.522 17.024 108.498 18.016C109.49 18.992 109.986 20.264 109.986 21.832ZM101.61 21.28H107.418C107.402 20.416 107.146 19.752 106.65 19.288C106.17 18.824 105.482 18.592 104.586 18.592C103.674 18.592 102.954 18.84 102.426 19.336C101.898 19.832 101.626 20.48 101.61 21.28ZM116.037 28.288C114.325 28.288 112.965 27.752 111.957 26.68C110.965 25.592 110.469 24.168 110.469 22.408C110.469 20.648 110.965 19.232 111.957 18.16C112.965 17.072 114.325 16.528 116.037 16.528C117.573 16.528 118.805 16.92 119.733 17.704C120.677 18.472 121.213 19.504 121.341 20.8H118.725C118.437 19.504 117.541 18.856 116.037 18.856C115.109 18.856 114.381 19.168 113.853 19.792C113.341 20.4 113.085 21.272 113.085 22.408C113.085 23.544 113.341 24.424 113.853 25.048C114.381 25.656 115.109 25.96 116.037 25.96C117.525 25.96 118.421 25.352 118.725 24.136H121.341C121.213 25.4 120.677 26.408 119.733 27.16C118.805 27.912 117.573 28.288 116.037 28.288ZM127.322 28.288C125.578 28.288 124.226 27.736 123.266 26.632C122.306 25.528 121.826 24.12 121.826 22.408C121.826 20.712 122.33 19.312 123.338 18.208C124.346 17.088 125.698 16.528 127.394 16.528C128.146 16.528 128.834 16.688 129.458 17.008C130.082 17.328 130.562 17.768 130.898 18.328V16.816H133.514V28H130.898V26.488C130.578 27.032 130.074 27.472 129.386 27.808C128.714 28.128 128.026 28.288 127.322 28.288ZM127.706 25.96C128.778 25.96 129.594 25.624 130.154 24.952C130.73 24.28 131.018 23.432 131.018 22.408C131.018 21.384 130.73 20.536 130.154 19.864C129.594 19.192 128.778 18.856 127.706 18.856C126.698 18.856 125.898 19.192 125.306 19.864C124.73 20.52 124.442 21.368 124.442 22.408C124.442 23.448 124.73 24.304 125.306 24.976C125.898 25.632 126.698 25.96 127.706 25.96ZM135.429 28V16.816H138.045V18.976C138.237 18.224 138.613 17.656 139.173 17.272C139.733 16.872 140.349 16.672 141.021 16.672C141.453 16.672 141.797 16.704 142.053 16.768V19.168C141.781 19.136 141.437 19.12 141.021 19.12C140.093 19.12 139.365 19.464 138.837 20.152C138.309 20.824 138.045 21.792 138.045 23.056V28H135.429ZM150.541 11.2H153.157V28H150.541V26.488C150.221 27.032 149.717 27.472 149.029 27.808C148.357 28.128 147.669 28.288 146.965 28.288C145.221 28.288 143.869 27.736 142.909 26.632C141.949 25.528 141.469 24.12 141.469 22.408C141.469 20.712 141.973 19.312 142.981 18.208C143.989 17.088 145.341 16.528 147.037 16.528C147.789 16.528 148.477 16.688 149.101 17.008C149.725 17.328 150.205 17.768 150.541 18.328V11.2ZM147.349 25.96C148.421 25.96 149.237 25.624 149.797 24.952C150.373 24.28 150.661 23.432 150.661 22.408C150.661 21.384 150.373 20.536 149.797 19.864C149.237 19.192 148.421 18.856 147.349 18.856C146.341 18.856 145.541 19.192 144.949 19.864C144.373 20.52 144.085 21.368 144.085 22.408C144.085 23.448 144.373 24.304 144.949 24.976C145.541 25.632 146.341 25.96 147.349 25.96Z" fill="black"></path></svg>
