<svg xmlns="http://www.w3.org/2000/svg" viewBox="0 0 2353 714.94"><defs><style>.cls-1,.cls-2{fill:none;}.cls-2,.cls-3{stroke:#000;stroke-miterlimit:10;}.cls-2{stroke-width:3px;}.cls-3{stroke-width:2px;}</style></defs><g id="Layer_2" data-name="Layer 2"><g id="Ñëîé_1" data-name="Ñëîé 1"><rect class="cls-1" x="3" y="3" width="2347" height="708.94" rx="142.91"/><path class="cls-2" d="M2207.09,4.5A141.42,141.42,0,0,1,2348.5,145.91V569a141.42,141.42,0,0,1-141.41,141.41H145.91A141.42,141.42,0,0,1,4.5,569V145.91A141.42,141.42,0,0,1,145.91,4.5H2207.09m0-3H145.91A144.4,144.4,0,0,0,1.5,145.91V569A144.4,144.4,0,0,0,145.91,713.44H2207.09A144.4,144.4,0,0,0,2351.5,569V145.91A144.4,144.4,0,0,0,2207.09,1.5Z"/><path d="M746.27,207.17V194.58l45.48-.08v39.85a80.55,80.55,0,0,1-21.61,12.56,64.24,64.24,0,0,1-22.85,4.21,60.94,60.94,0,0,1-28.75-6.78A44.74,44.74,0,0,1,699,224.75a61.73,61.73,0,0,1-6.59-28.64A66.49,66.49,0,0,1,699,166.85a43.63,43.63,0,0,1,18.86-20.18q12.3-6.58,28.34-6.59a56.26,56.26,0,0,1,21.06,3.77A35,35,0,0,1,782,154.37q5.34,6.74,8.13,17.57l-12.82,3.52a39.42,39.42,0,0,0-6-12.89,24.59,24.59,0,0,0-10.25-7.51,37.57,37.57,0,0,0-14.79-2.82,43.5,43.5,0,0,0-16.85,3A31.29,31.29,0,0,0,718,163a37,37,0,0,0-6.78,10.62,56.25,56.25,0,0,0-4.1,21.6q0,14.37,4.94,24a31.66,31.66,0,0,0,14.4,14.35,44.48,44.48,0,0,0,20.07,4.69,47.61,47.61,0,0,0,18-3.55q8.79-3.56,13.33-7.58v-20Z"/><path d="M813,249.29V141.91h77.64v12.68H827.2v32.88h59.4v12.6H827.2v36.55h65.92v12.67Z"/><path d="M940.06,249.29v-94.7H904.69V141.91H989.8v12.68H954.27v94.7Z"/><path d="M1045.75,249.29V141.91H1060V249.29Z"/><path d="M1084.86,249.29V141.91h14.58l56.4,84.31V141.91h13.62V249.29h-14.58l-56.39-84.38v84.38Z"/><path d="M1230.69,197q0-26.73,14.35-41.86T1282.11,140a51.45,51.45,0,0,1,26.8,7.1,46.41,46.41,0,0,1,18.2,19.82q6.27,12.7,6.26,28.82,0,16.33-6.59,29.22a45,45,0,0,1-18.67,19.52,53.37,53.37,0,0,1-26.08,6.63,50.71,50.71,0,0,1-27.1-7.33,47.07,47.07,0,0,1-18.09-20A60.62,60.62,0,0,1,1230.69,197Zm14.65.22q0,19.41,10.43,30.58T1282,239q16,0,26.4-11.28t10.37-32q0-13.11-4.43-22.88a34.11,34.11,0,0,0-13-15.17,35.21,35.21,0,0,0-19.15-5.38,36.39,36.39,0,0,0-26,10.36Q1245.34,173,1245.34,197.21Z"/><path d="M1351.54,249.29V141.91h14.57l56.4,84.31V141.91h13.62V249.29h-14.57l-56.4-84.38v84.38Z"/><path class="cls-3" d="M684,519.29l77-200.43h28.58l82,200.43H841.4L818,458.58H734.21l-22,60.71ZM741.87,437h68L788.9,381.47q-9.57-25.29-14.22-41.56a254.79,254.79,0,0,1-10.8,38.28Z"/><path class="cls-3" d="M889.66,574.93V374.09h22.43V393Q920,381.89,930,376.35t24.2-5.54q18.59,0,32.81,9.57t21.46,27a98.61,98.61,0,0,1,7.25,38.22q0,22.27-8,40.12t-23.24,27.35a59.73,59.73,0,0,1-32.06,9.5,46.2,46.2,0,0,1-22.08-5.2,50.14,50.14,0,0,1-16.07-13.12v70.68ZM912,447.51q0,28,11.35,41.43t27.48,13.39q16.4,0,28.09-13.87t11.69-43q0-27.75-11.41-41.56t-27.28-13.81q-15.72,0-27.82,14.7T912,447.51Z"/><path class="cls-3" d="M1045.39,574.93V374.09h22.42V393q7.92-11.07,17.91-16.61t24.2-5.54q18.58,0,32.81,9.57t21.47,27a98.61,98.61,0,0,1,7.24,38.22q0,22.27-8,40.12t-23.24,27.35a59.71,59.71,0,0,1-32.06,9.5,46.26,46.26,0,0,1-22.08-5.2A50.1,50.1,0,0,1,1070,504.25v70.68Zm22.28-127.42q0,28,11.35,41.43t27.48,13.39q16.41,0,28.1-13.87t11.68-43q0-27.75-11.41-41.56t-27.28-13.81q-15.72,0-27.82,14.7T1067.67,447.51Z"/><path class="cls-3" d="M1273,454.89l25-2.18q1.79,15,8.27,24.67T1326.48,493a76.44,76.44,0,0,0,30.76,5.95q15.18,0,26.8-4.52T1401.33,482a28.72,28.72,0,0,0,5.68-17.16,26.1,26.1,0,0,0-5.47-16.47q-5.47-7-18-11.83-8.07-3.13-35.68-9.77t-38.69-12.51q-14.36-7.52-21.4-18.66a45.79,45.79,0,0,1-7-25,51,51,0,0,1,8.61-28.37q8.61-13.19,25.16-20a95.4,95.4,0,0,1,36.78-6.84q22.27,0,39.3,7.18t26.18,21.12a60.68,60.68,0,0,1,9.85,31.58l-25.43,1.92q-2.06-19-13.88-28.71t-34.93-9.71q-24.06,0-35.07,8.82t-11,21.26a22.77,22.77,0,0,0,7.79,17.77q7.65,7,40,14.29t44.36,12.78q17.5,8.07,25.84,20.44a49.8,49.8,0,0,1,8.34,28.51,54.47,54.47,0,0,1-9.16,30.14q-9.15,14.16-26.31,22t-38.63,7.87q-27.21,0-45.59-7.93A63.86,63.86,0,0,1,1284,490.92,67.73,67.73,0,0,1,1273,454.89Z"/><path class="cls-3" d="M1519.39,497.28,1523,519a91.25,91.25,0,0,1-18.6,2.19q-13.39,0-20.78-4.24a23.7,23.7,0,0,1-10.39-11.14q-3-6.9-3-29.05V393.23h-18.05V374.09h18.05v-36l24.47-14.76v50.72h24.75v19.14h-24.75v84.9q0,10.53,1.3,13.54a10.29,10.29,0,0,0,4.24,4.79q2.94,1.77,8.41,1.77A81.3,81.3,0,0,0,1519.39,497.28Z"/><path class="cls-3" d="M1534.29,446.69q0-40.33,22.42-59.75,18.74-16.12,45.67-16.13,29.94,0,48.94,19.62t19,54.21q0,28-8.41,44.09a59.51,59.51,0,0,1-24.47,24.95,71.2,71.2,0,0,1-35.07,8.89q-30.5,0-49.29-19.55T1534.29,446.69Zm25.3,0q0,27.88,12.16,41.77a39,39,0,0,0,30.63,13.87q18.31,0,30.49-13.94T1645,445.87q0-26.94-12.23-40.81t-30.42-13.88A39.11,39.11,0,0,0,1571.75,405Q1559.59,418.8,1559.59,446.69Z"/><path class="cls-3" d="M1698.9,519.29V374.09h22.15v22q8.48-15.45,15.65-20.37a27.35,27.35,0,0,1,15.8-4.92q12.43,0,25.29,7.93l-8.48,22.83a35.23,35.23,0,0,0-18-5.33,23.5,23.5,0,0,0-14.5,4.85,26.39,26.39,0,0,0-9.16,13.47,96,96,0,0,0-4.1,28.71v76Z"/><path class="cls-3" d="M1891.81,472.53l25.43,3.14q-6,22.29-22.28,34.59t-41.57,12.31q-31.85,0-50.51-19.62t-18.67-55q0-36.65,18.87-56.87t49-20.24q29.12,0,47.58,19.82t18.45,55.79c0,1.46,0,3.64-.13,6.56H1809.64q1.36,23.92,13.54,36.64t30.35,12.71q13.53,0,23.11-7.11T1891.81,472.53ZM1811,432.74h81.08q-1.65-18.32-9.3-27.48-11.76-14.2-30.49-14.21-17,0-28.51,11.34T1811,432.74Z"/><path d="M539.17,285.88s-72.67,41.36-40.34,125.88c7.59,19.85,26,39.42,52.09,50.75a230.71,230.71,0,0,1-13.38,33.75c-9.27,19.29-25.57,44.3-45,65.12,0,0-14.3,15.3-30.45,18.85-10,2.19-22.24,2.27-36.83-3,0,0-19.31-8.82-31.87-11.61-14-3.12-32.29-1.42-41.64,1.84s-28.76,11-28.76,11a51,51,0,0,1-50.28-6.23c-24.05-17.47-51.56-62.75-56.52-72.67-3.83-7.65-21.53-39.66-29.15-89.35-2.24-14.63-2.79-30.89-1.87-48.47,2.55-48.87,27.91-81.84,46.24-96.18a102.11,102.11,0,0,1,16.93-10.91c5.39-2.69,38.53-20.68,76.21-7.65,28.77,9.95,37.4,15,47,14.88a32.36,32.36,0,0,0,6.51-1.1A110.8,110.8,0,0,0,395,255.28a193.32,193.32,0,0,1,18.5-7.11,167.27,167.27,0,0,1,17.29-4.84c3-.65,5.95-1.19,9-1.57a70.18,70.18,0,0,1,10.35-.65,148.34,148.34,0,0,1,18,1.42,111.14,111.14,0,0,1,16.43,3.68,134.85,134.85,0,0,1,14.42,5.35c10.86,4.72,21.81,12.42,31.9,23.69Z"/><path d="M457.15,132.47s-17.54,0-39.17,12.15c-24.29,13.63-56.58,47.77-51.2,91.11,0,0,10.83,2.77,27.61-3.55,1.82-.68,3.68-1.56,5.68-2.4,23.06-9.72,43.49-32.06,52.49-58C457,159.19,458.85,146.64,457.15,132.47Z"/></g></g></svg>