<svg xmlns="http://www.w3.org/2000/svg" viewBox="0 0 2350 711.94"><defs><style>.cls-1{fill:#7d5df6;}.cls-2,.cls-3{fill:#fff;}.cls-3{stroke:#000;stroke-miterlimit:10;stroke-width:2px;}</style></defs><g id="Layer_2" data-name="Layer 2"><g id="Ñëîé_1" data-name="Ñëîé 1"><rect class="cls-1" width="2350" height="711.94" rx="144.41"/><path class="cls-2" d="M549.52,311.92c34.39,19.59,34.36,69.17-.06,88.71l-91.93,52.18-98.17-97.22,98.49-95.88Z"/><path class="cls-2" d="M452.85,254.71l-98.49,95.88L164.45,162.53c8.85-30.28,44.65-46.64,74.22-29.8Z"/><path class="cls-2" d="M354.36,360.59l98.17,97.22L238.6,579.25c-30.58,17.36-67.78-.76-75-33Z"/><path class="cls-2" d="M350.36,355.59,159.63,541.23a52.5,52.5,0,0,1-1.23-11.35V182.07a51.71,51.71,0,0,1,2-14.54Z"/><path class="cls-2" d="M682.73,246.15,724,138.77h15.31l44,107.38H767l-12.52-32.52h-44.9l-11.79,32.52Zm31-44.1h36.4l-11.2-29.73q-5.13-13.55-7.62-22.27a137.2,137.2,0,0,1-5.79,20.51Z"/><path class="cls-2" d="M814.13,246.15,772.52,138.77H787.9l27.91,78q3.38,9.38,5.64,17.57,2.49-8.78,5.79-17.57l29-78h14.5l-42,107.38Z"/><path class="cls-2" d="M860.56,246.15,901.8,138.77h15.3l43.95,107.38H944.86l-12.52-32.52h-44.9l-11.79,32.52Zm31-44.1h36.4l-11.2-29.73q-5.13-13.55-7.62-22.27a137.2,137.2,0,0,1-5.79,20.51Z"/><path class="cls-2" d="M974.82,246.15V138.77H989V246.15Z"/><path class="cls-2" d="M1013.49,246.15V138.77h14.21v94.71h52.88v12.67Z"/><path class="cls-2" d="M1085.71,246.15l41.23-107.38h15.31l44,107.38H1170l-12.52-32.52h-44.9l-11.79,32.52Zm31-44.1h36.4l-11.21-29.73q-5.12-13.55-7.61-22.27a137.2,137.2,0,0,1-5.79,20.51Z"/><path class="cls-2" d="M1197,246.15V138.77h40.29q12.3,0,19.73,3.26a25.42,25.42,0,0,1,11.65,10,26.41,26.41,0,0,1,4.21,14.17,24.32,24.32,0,0,1-3.73,13,26.63,26.63,0,0,1-11.28,9.82q9.74,2.85,15,9.74A26,26,0,0,1,1278,215a31.38,31.38,0,0,1-3.18,14,27.08,27.08,0,0,1-7.88,10,32.59,32.59,0,0,1-11.75,5.31,71.38,71.38,0,0,1-17.33,1.8Zm14.21-62.26h23.22q9.45,0,13.55-1.24a15.12,15.12,0,0,0,8.17-5.35,15.42,15.42,0,0,0,2.74-9.38,17.26,17.26,0,0,0-2.56-9.41A13,13,0,0,0,1249,153q-4.76-1.5-16.33-1.51h-21.46Zm0,49.59h26.73a60.26,60.26,0,0,0,9.67-.52,23.07,23.07,0,0,0,8.21-2.93,15.54,15.54,0,0,0,5.42-6,18.72,18.72,0,0,0,2.12-9,17.88,17.88,0,0,0-3.08-10.44,16.19,16.19,0,0,0-8.53-6.22q-5.46-1.8-15.71-1.8h-24.83Z"/><path class="cls-2" d="M1297,246.15V138.77h14.21v94.71h52.88v12.67Z"/><path class="cls-2" d="M1381.31,246.15V138.77H1459v12.67h-63.43v32.89h59.4v12.6h-59.4v36.55h65.92v12.67Z"/><path class="cls-2" d="M1518.42,193.85q0-26.73,14.36-41.86t37.06-15.12a51.49,51.49,0,0,1,26.81,7.1,46.53,46.53,0,0,1,18.2,19.82,64.41,64.41,0,0,1,6.26,28.82,63.29,63.29,0,0,1-6.59,29.22,45.05,45.05,0,0,1-18.68,19.52,53.36,53.36,0,0,1-26.07,6.63,50.68,50.68,0,0,1-27.1-7.33,47.16,47.16,0,0,1-18.1-20A60.62,60.62,0,0,1,1518.42,193.85Zm14.65.22q0,19.41,10.44,30.58t26.18,11.17q16.05,0,26.41-11.28t10.36-32q0-13.11-4.43-22.88a34.11,34.11,0,0,0-13-15.17,35.19,35.19,0,0,0-19.15-5.38,36.35,36.35,0,0,0-26,10.36Q1533.08,169.83,1533.07,194.07Z"/><path class="cls-2" d="M1639.27,246.15V138.77h14.58l56.39,84.31V138.77h13.63V246.15h-14.58l-56.39-84.38v84.38Z"/><path class="cls-3" d="M798.34,437.53V414l84.9-.14v74.38a149.88,149.88,0,0,1-40.33,23.44,119.66,119.66,0,0,1-42.66,7.86q-29.52,0-53.66-12.64a83.55,83.55,0,0,1-36.43-36.57q-12.31-23.93-12.31-53.46a124,124,0,0,1,12.24-54.62q12.23-25.36,35.2-37.67t52.91-12.3q21.75,0,39.31,7T865.06,339q10,12.59,15.17,32.81l-23.92,6.56Q851.8,363,845.1,354.27t-19.14-14A70.21,70.21,0,0,0,798.34,335q-18.18,0-31.45,5.54T745.5,355.09a69.44,69.44,0,0,0-12.65,19.83,105,105,0,0,0-7.65,40.33q0,26.79,9.22,44.84a59.09,59.09,0,0,0,26.87,26.8,83.21,83.21,0,0,0,37.46,8.75A89,89,0,0,0,832.38,489q16.41-6.63,24.89-14.15V437.53Z"/><path class="cls-3" d="M910,443.55q0-40.33,22.42-59.75,18.74-16.12,45.66-16.13,30,0,48.95,19.62t19,54.21q0,28-8.4,44.09a59.53,59.53,0,0,1-24.48,25,71.2,71.2,0,0,1-35.07,8.89q-30.48,0-49.28-19.55T910,443.55Zm25.29,0q0,27.88,12.17,41.77a39,39,0,0,0,30.62,13.87q18.33,0,30.49-13.94t12.17-42.52q0-26.94-12.24-40.81T978.12,388a39.07,39.07,0,0,0-30.62,13.81Q935.34,415.67,935.33,443.55Z"/><path class="cls-3" d="M1065.76,443.55q0-40.33,22.42-59.75,18.73-16.12,45.67-16.13,29.94,0,48.94,19.62t19,54.21q0,28-8.41,44.09a59.57,59.57,0,0,1-24.47,25,71.23,71.23,0,0,1-35.07,8.89q-30.49,0-49.29-19.55T1065.76,443.55Zm25.29,0q0,27.88,12.17,41.77a39,39,0,0,0,30.63,13.87q18.32,0,30.49-13.94t12.16-42.52q0-26.94-12.23-40.81T1133.85,388a39.07,39.07,0,0,0-30.63,13.81Q1091.05,415.67,1091.05,443.55Z"/><path class="cls-3" d="M1226.13,528.18l23.93,3.55q1.5,11.09,8.34,16.14,9.15,6.82,25,6.83,17.08,0,26.38-6.83t12.58-19.15q1.92-7.51,1.78-31.58-16.14,19-40.2,19-29.94,0-46.34-21.6t-16.41-51.82a96.5,96.5,0,0,1,7.52-38.35q7.51-17.56,21.81-27.14t33.56-9.57q25.71,0,42.38,20.78V371h22.7V496.46q0,33.9-6.9,48.06t-21.88,22.35q-15,8.21-36.85,8.2-26,0-42-11.69T1226.13,528.18ZM1246.5,441q0,28.57,11.35,41.7t28.44,13.13q16.95,0,28.44-13.06t11.48-41q0-26.65-11.83-40.19T1285.88,388q-16.41,0-27.89,13.33T1246.5,441Z"/><path class="cls-3" d="M1385.82,516.15V315.72h24.61V516.15Z"/><path class="cls-3" d="M1548,469.39l25.43,3.14q-6,22.29-22.29,34.59t-41.56,12.31q-31.86,0-50.52-19.62t-18.66-55q0-36.64,18.87-56.88t48.94-20.23q29.13,0,47.58,19.82t18.46,55.79q0,2.18-.14,6.56H1465.8q1.37,23.93,13.54,36.64t30.35,12.71q13.53,0,23.1-7.11T1548,469.39Zm-80.8-39.79h81.07q-1.63-18.32-9.29-27.48-11.76-14.22-30.49-14.22-17,0-28.51,11.35T1467.17,429.6Z"/><path class="cls-3" d="M1685.23,516.15V315.72h75.61q20,0,30.49,1.91,14.76,2.46,24.74,9.37t16.07,19.34a61.51,61.51,0,0,1,6.08,27.35q0,25.56-16.27,43.27t-58.79,17.7h-51.4v81.49ZM1711.76,411h51.81q25.71,0,36.51-9.57t10.8-26.93q0-12.58-6.36-21.54a29.69,29.69,0,0,0-16.75-11.82q-6.69-1.78-24.74-1.78h-51.27Z"/><path class="cls-3" d="M1868.3,516.15V315.72h24.61V516.15Z"/><path class="cls-3" d="M2025.8,498.24q-13.66,11.61-26.32,16.4a76.06,76.06,0,0,1-27.14,4.79q-23.92,0-36.77-11.69t-12.86-29.87a39.72,39.72,0,0,1,4.86-19.49,40.16,40.16,0,0,1,12.71-14.15,59.87,59.87,0,0,1,17.71-8.06,175.68,175.68,0,0,1,21.87-3.7q29.81-3.54,43.89-8.47c.09-3.37.14-5.52.14-6.43q0-15-7-21.19-9.44-8.34-28-8.34-17.37,0-25.64,6.09T1951,415.66L1927,412.38q3.29-15.45,10.8-24.95t21.74-14.63q14.22-5.13,33-5.13t30.22,4.38q11.61,4.36,17.09,11a38.76,38.76,0,0,1,7.65,16.75q1.23,6.29,1.23,22.69v32.82q0,34.32,1.57,43.41a54.81,54.81,0,0,0,6.23,17.43h-25.71A52.32,52.32,0,0,1,2025.8,498.24Zm-2-55q-13.39,5.46-40.2,9.29-15.16,2.19-21.46,4.92a21.47,21.47,0,0,0-9.71,8,21.74,21.74,0,0,0,4,28.1q7.44,6.56,21.8,6.56a50.76,50.76,0,0,0,25.3-6.22,38.29,38.29,0,0,0,16.26-17q4-8.34,4-24.61Z"/><path class="cls-3" d="M2085.68,572.06,2083,549a54.79,54.79,0,0,0,14.08,2.19q8.2,0,13.13-2.74a22.35,22.35,0,0,0,8.06-7.65q2.33-3.69,7.52-18.32.69-2.06,2.19-6L2072.83,371h26.53L2129.57,455q5.88,16,10.53,33.64a330.08,330.08,0,0,1,10.11-33.09l31-84.63h24.61l-55.24,147.66q-8.88,23.92-13.8,32.95-6.57,12.16-15,17.84t-20.24,5.67A49.2,49.2,0,0,1,2085.68,572.06Z"/></g></g></svg>