<svg xmlns="http://www.w3.org/2000/svg" viewBox="0 0 2353 714.94"><defs><style>.cls-1{fill:none;stroke:#fff;stroke-width:3px;}.cls-1,.cls-7{stroke-miterlimit:10;}.cls-2{fill:#fbbc04;}.cls-3{fill:#34a853;}.cls-4{fill:#ea4335;}.cls-5{fill:#4285f4;}.cls-6,.cls-7{fill:#fff;}.cls-7{stroke:#000;stroke-width:2px;}</style></defs><g id="Layer_2" data-name="Layer 2"><g id="Ñëîé_1" data-name="Ñëîé 1"><rect class="cls-1" x="3" y="3" width="2347" height="708.94" rx="142.91"/><path class="cls-1" d="M2207.09,4.5A141.42,141.42,0,0,1,2348.5,145.91V569a141.42,141.42,0,0,1-141.41,141.41H145.91A141.42,141.42,0,0,1,4.5,569V145.91A141.42,141.42,0,0,1,145.91,4.5H2207.09m0-3H145.91A144.4,144.4,0,0,0,1.5,145.91V569A144.4,144.4,0,0,0,145.91,713.44H2207.09A144.4,144.4,0,0,0,2351.5,569V145.91A144.4,144.4,0,0,0,2207.09,1.5Z"/><path class="cls-2" d="M546,313.42c34.39,19.59,34.36,69.17-.06,88.71L454,454.31l-98.17-97.22,98.49-95.88Z"/><path class="cls-3" d="M454.35,261.21l-98.49,95.88L166,169c8.85-30.28,44.65-46.64,74.22-29.8Z"/><path class="cls-4" d="M355.86,357.09,454,454.31,240.1,575.75c-30.58,17.36-67.78-.76-75-33Z"/><path class="cls-5" d="M355.86,357.09,165.13,542.73a52.5,52.5,0,0,1-1.23-11.35V183.57A51.71,51.71,0,0,1,166,169Z"/><path class="cls-6" d="M746.27,205.53V192.94l45.48-.08v39.85a80.55,80.55,0,0,1-21.61,12.56,64.24,64.24,0,0,1-22.85,4.21,60.94,60.94,0,0,1-28.75-6.78A44.74,44.74,0,0,1,699,223.11a61.73,61.73,0,0,1-6.59-28.64A66.49,66.49,0,0,1,699,165.21q6.56-13.58,18.86-20.17t28.34-6.6a56.26,56.26,0,0,1,21.06,3.77A35,35,0,0,1,782,152.72q5.34,6.75,8.13,17.58l-12.82,3.52a39.42,39.42,0,0,0-6-12.89,24.59,24.59,0,0,0-10.25-7.51,37.57,37.57,0,0,0-14.79-2.82,43.5,43.5,0,0,0-16.85,3,31.29,31.29,0,0,0-11.46,7.8A37,37,0,0,0,711.18,172a56.25,56.25,0,0,0-4.1,21.6q0,14.37,4.94,24A31.66,31.66,0,0,0,726.42,232a44.47,44.47,0,0,0,20.06,4.69,47.62,47.62,0,0,0,18-3.55q8.79-3.56,13.33-7.58v-20Z"/><path class="cls-6" d="M813,247.65V140.27h77.64V153H827.2v32.88h59.4v12.6H827.2V235h65.92v12.67Z"/><path class="cls-6" d="M940.06,247.65V153H904.69V140.27H989.8V153H954.27v94.7Z"/><path class="cls-6" d="M1045.75,247.65V140.27H1060V247.65Z"/><path class="cls-6" d="M1084.86,247.65V140.27h14.58l56.4,84.31V140.27h13.62V247.65h-14.58l-56.39-84.38v84.38Z"/><path class="cls-6" d="M1230.69,195.35q0-26.73,14.35-41.86t37.07-15.12a51.45,51.45,0,0,1,26.8,7.1,46.41,46.41,0,0,1,18.2,19.82q6.27,12.71,6.26,28.82,0,16.33-6.59,29.22a45,45,0,0,1-18.67,19.52,53.37,53.37,0,0,1-26.08,6.63,50.71,50.71,0,0,1-27.1-7.33,47.07,47.07,0,0,1-18.09-20A60.62,60.62,0,0,1,1230.69,195.35Zm14.65.22q0,19.41,10.43,30.58T1282,237.32q16,0,26.4-11.28t10.37-32q0-13.11-4.43-22.88a34.11,34.11,0,0,0-13-15.17,35.21,35.21,0,0,0-19.15-5.38,36.39,36.39,0,0,0-26,10.36Q1245.34,171.34,1245.34,195.57Z"/><path class="cls-6" d="M1351.54,247.65V140.27h14.57l56.4,84.31V140.27h13.62V247.65h-14.57l-56.4-84.38v84.38Z"/><path class="cls-7" d="M799.84,439V415.52l84.9-.14v74.38a149.88,149.88,0,0,1-40.33,23.44,119.66,119.66,0,0,1-42.66,7.86q-29.52,0-53.66-12.64a83.55,83.55,0,0,1-36.43-36.57q-12.31-23.93-12.31-53.46a124,124,0,0,1,12.24-54.62q12.23-25.36,35.2-37.67t52.91-12.3q21.74,0,39.31,7t27.55,19.62q10,12.59,15.17,32.81l-23.92,6.56q-4.51-15.3-11.21-24.06t-19.14-14a70.21,70.21,0,0,0-27.62-5.27q-18.18,0-31.45,5.54T747,356.59a69.44,69.44,0,0,0-12.65,19.83,105,105,0,0,0-7.66,40.33q0,26.79,9.23,44.84a59.09,59.09,0,0,0,26.87,26.8,83.21,83.21,0,0,0,37.46,8.75,89,89,0,0,0,33.63-6.63q16.41-6.63,24.89-14.15V439Z"/><path class="cls-7" d="M911.54,445.05q0-40.33,22.42-59.75,18.74-16.12,45.66-16.13,30,0,48.95,19.62t19,54.21q0,28-8.4,44.09A59.53,59.53,0,0,1,1014.69,512a71.31,71.31,0,0,1-35.07,8.89q-30.48,0-49.28-19.55T911.54,445.05Zm25.29,0q0,27.88,12.17,41.77a39,39,0,0,0,30.62,13.87q18.33,0,30.49-13.94t12.17-42.52q0-26.94-12.24-40.81t-30.42-13.88A39.07,39.07,0,0,0,949,403.35Q936.84,417.17,936.83,445.05Z"/><path class="cls-7" d="M1067.26,445.05q0-40.33,22.42-59.75,18.73-16.12,45.67-16.13,29.94,0,48.94,19.62t19,54.21q0,28-8.41,44.09A59.57,59.57,0,0,1,1170.42,512a71.33,71.33,0,0,1-35.07,8.89q-30.49,0-49.29-19.55T1067.26,445.05Zm25.29,0q0,27.88,12.17,41.77a39,39,0,0,0,30.63,13.87q18.32,0,30.49-13.94T1178,444.23q0-26.94-12.23-40.81t-30.42-13.88a39.07,39.07,0,0,0-30.63,13.81Q1092.55,417.17,1092.55,445.05Z"/><path class="cls-7" d="M1227.63,529.68l23.93,3.55q1.5,11.09,8.34,16.14,9.15,6.82,25,6.83,17.08,0,26.38-6.83t12.58-19.15q1.92-7.51,1.78-31.58-16.14,19-40.2,19-29.94,0-46.34-21.6t-16.41-51.82a96.5,96.5,0,0,1,7.52-38.35q7.51-17.56,21.81-27.14t33.56-9.57q25.71,0,42.38,20.78v-17.5h22.7V498q0,33.9-6.91,48.06t-21.87,22.35q-15,8.21-36.85,8.2-26,0-42-11.69T1227.63,529.68ZM1248,442.45q0,28.57,11.35,41.7t28.44,13.13q16.95,0,28.44-13.06t11.48-41q0-26.65-11.83-40.19t-28.5-13.54q-16.41,0-27.89,13.33T1248,442.45Z"/><path class="cls-7" d="M1387.32,517.65V317.22h24.61V517.65Z"/><path class="cls-7" d="M1549.47,470.89,1574.9,474q-6,22.29-22.29,34.59t-41.56,12.31q-31.86,0-50.52-19.62t-18.66-55q0-36.64,18.87-56.88t48.94-20.23q29.13,0,47.58,19.82t18.46,55.79q0,2.18-.14,6.56H1467.3q1.37,23.93,13.54,36.64t30.35,12.71q13.53,0,23.1-7.11T1549.47,470.89Zm-80.8-39.79h81.07q-1.63-18.32-9.3-27.48Q1528.69,389.4,1510,389.4q-17,0-28.51,11.35T1468.67,431.1Z"/><path class="cls-7" d="M1686.73,517.65V317.22h75.61q20,0,30.49,1.91,14.76,2.46,24.74,9.37t16.07,19.34a61.51,61.51,0,0,1,6.08,27.35q0,25.56-16.27,43.27t-58.79,17.7h-51.4v81.49Zm26.53-105.14h51.81q25.71,0,36.51-9.57t10.8-26.93q0-12.58-6.36-21.54a29.69,29.69,0,0,0-16.75-11.82q-6.69-1.78-24.74-1.78h-51.27Z"/><path class="cls-7" d="M1869.8,517.65V317.22h24.61V517.65Z"/><path class="cls-7" d="M2027.3,499.74q-13.66,11.61-26.32,16.4a76.06,76.06,0,0,1-27.14,4.79q-23.92,0-36.77-11.69t-12.86-29.87a39.72,39.72,0,0,1,4.86-19.49,40.16,40.16,0,0,1,12.71-14.15,59.87,59.87,0,0,1,17.71-8.06,175.68,175.68,0,0,1,21.87-3.7q29.81-3.54,43.89-8.47c.09-3.37.14-5.52.14-6.43q0-15-7-21.19-9.44-8.34-28-8.34-17.37,0-25.64,6.09t-12.23,21.53l-24.07-3.28q3.29-15.45,10.8-24.95T1961,374.3q14.22-5.13,33-5.13t30.22,4.38q11.61,4.36,17.09,11a38.76,38.76,0,0,1,7.65,16.75q1.23,6.29,1.23,22.69v32.82q0,34.32,1.57,43.4a54.78,54.78,0,0,0,6.23,17.44h-25.71A52.32,52.32,0,0,1,2027.3,499.74Zm-2-55q-13.39,5.46-40.2,9.29-15.16,2.19-21.46,4.92a21.47,21.47,0,0,0-9.71,8,21.74,21.74,0,0,0,4,28.1q7.44,6.56,21.8,6.56a50.76,50.76,0,0,0,25.3-6.22,38.29,38.29,0,0,0,16.26-17q4-8.34,4-24.61Z"/><path class="cls-7" d="M2087.18,573.56l-2.73-23.1a54.79,54.79,0,0,0,14.08,2.19q8.2,0,13.13-2.74a22.35,22.35,0,0,0,8.06-7.65q2.33-3.69,7.52-18.32.69-2.06,2.19-6l-55.1-145.47h26.53l30.21,84.08q5.88,16,10.53,33.64a330.08,330.08,0,0,1,10.11-33.09l31-84.63h24.61l-55.24,147.66q-8.88,23.92-13.8,32.95-6.57,12.16-15,17.84T2103,576.57A49.2,49.2,0,0,1,2087.18,573.56Z"/></g></g></svg>