<svg xmlns="http://www.w3.org/2000/svg" viewBox="0 0 2350 711.94"><defs><style>.cls-1,.cls-2{fill:#fff;}.cls-2{stroke:#000;stroke-miterlimit:10;stroke-width:2px;}</style></defs><g id="Layer_2" data-name="Layer 2"><g id="Ñëîé_1" data-name="Ñëîé 1"><rect width="2350" height="711.94" rx="144.41"/><path class="cls-1" d="M682.73,247.79,724,140.41h15.31l44,107.38H767l-12.52-32.52h-44.9l-11.79,32.52Zm31-44.09h36.4L738.91,174q-5.13-13.54-7.62-22.27a136.87,136.87,0,0,1-5.79,20.51Z"/><path class="cls-1" d="M814.13,247.79,772.52,140.41H787.9l27.91,78q3.38,9.38,5.64,17.58,2.49-8.79,5.79-17.58l29-78h14.5l-42,107.38Z"/><path class="cls-1" d="M860.56,247.79,901.8,140.41h15.3l43.95,107.38H944.86l-12.52-32.52h-44.9l-11.79,32.52Zm31-44.09h36.4L916.74,174q-5.13-13.54-7.62-22.27a136.87,136.87,0,0,1-5.79,20.51Z"/><path class="cls-1" d="M974.82,247.79V140.41H989V247.79Z"/><path class="cls-1" d="M1013.49,247.79V140.41h14.21v94.71h52.88v12.67Z"/><path class="cls-1" d="M1085.71,247.79l41.23-107.38h15.31l44,107.38H1170l-12.52-32.52h-44.9l-11.79,32.52Zm31-44.09h36.4L1141.88,174q-5.12-13.54-7.61-22.27a136.87,136.87,0,0,1-5.79,20.51Z"/><path class="cls-1" d="M1197,247.79V140.41h40.29q12.3,0,19.73,3.26a25.42,25.42,0,0,1,11.65,10,26.41,26.41,0,0,1,4.21,14.17,24.32,24.32,0,0,1-3.73,13,26.63,26.63,0,0,1-11.28,9.82q9.74,2.85,15,9.74a26,26,0,0,1,5.24,16.26,31.45,31.45,0,0,1-3.18,14,27.13,27.13,0,0,1-7.88,10,32.59,32.59,0,0,1-11.75,5.31,71.38,71.38,0,0,1-17.33,1.8Zm14.21-62.26h23.22q9.45,0,13.55-1.24a15.12,15.12,0,0,0,8.17-5.35,15.4,15.4,0,0,0,2.74-9.38,17.26,17.26,0,0,0-2.56-9.41,13,13,0,0,0-7.33-5.56q-4.76-1.5-16.33-1.5h-21.46Zm0,49.59h26.73a60.26,60.26,0,0,0,9.67-.52,23.07,23.07,0,0,0,8.21-2.93,15.54,15.54,0,0,0,5.42-6,18.72,18.72,0,0,0,2.12-9,17.88,17.88,0,0,0-3.08-10.44,16.19,16.19,0,0,0-8.53-6.22q-5.46-1.8-15.71-1.8h-24.83Z"/><path class="cls-1" d="M1297,247.79V140.41h14.21v94.71h52.88v12.67Z"/><path class="cls-1" d="M1381.31,247.79V140.41H1459v12.68h-63.43V186h59.4v12.6h-59.4v36.55h65.92v12.67Z"/><path class="cls-1" d="M1518.42,195.49q0-26.73,14.36-41.86t37.06-15.12a51.49,51.49,0,0,1,26.81,7.1,46.53,46.53,0,0,1,18.2,19.82,64.41,64.41,0,0,1,6.26,28.82,63.29,63.29,0,0,1-6.59,29.22A45,45,0,0,1,1595.84,243a53.36,53.36,0,0,1-26.07,6.63,50.68,50.68,0,0,1-27.1-7.33,47.16,47.16,0,0,1-18.1-20A60.62,60.62,0,0,1,1518.42,195.49Zm14.65.22q0,19.41,10.44,30.58t26.18,11.17q16.05,0,26.41-11.28t10.36-32q0-13.11-4.43-22.88a34.11,34.11,0,0,0-13-15.17,35.19,35.19,0,0,0-19.15-5.38,36.32,36.32,0,0,0-26,10.37Q1533.08,171.48,1533.07,195.71Z"/><path class="cls-1" d="M1639.27,247.79V140.41h14.58l56.39,84.31V140.41h13.63V247.79h-14.58l-56.39-84.38v84.38Z"/><path class="cls-2" d="M682.54,517.79l77-200.43h28.58l82,200.43H839.9l-23.38-60.71H732.71l-22,60.71Zm57.83-82.31h68L787.4,380q-9.57-25.29-14.22-41.56a254.79,254.79,0,0,1-10.8,38.28Z"/><path class="cls-2" d="M888.16,573.43V372.59h22.43v18.87q7.92-11.07,17.91-16.61t24.2-5.54q18.59,0,32.81,9.57t21.46,27a98.61,98.61,0,0,1,7.25,38.22q0,22.27-8,40.12T983,511.57a59.73,59.73,0,0,1-32.06,9.5,46.2,46.2,0,0,1-22.08-5.2,50.14,50.14,0,0,1-16.07-13.12v70.68ZM910.45,446q0,28,11.35,41.43t27.48,13.39q16.4,0,28.09-13.87t11.69-43q0-27.75-11.41-41.56t-27.28-13.81q-15.72,0-27.82,14.7T910.45,446Z"/><path class="cls-2" d="M1043.89,573.43V372.59h22.42v18.87q7.92-11.07,17.91-16.61t24.2-5.54q18.58,0,32.81,9.57t21.47,27a98.61,98.61,0,0,1,7.24,38.22q0,22.27-8,40.12t-23.24,27.35a59.71,59.71,0,0,1-32.06,9.5,46.26,46.26,0,0,1-22.08-5.2,50.1,50.1,0,0,1-16.06-13.12v70.68ZM1066.17,446q0,28,11.35,41.43T1105,500.83q16.41,0,28.1-13.87t11.68-43q0-27.75-11.41-41.56t-27.28-13.81q-15.72,0-27.82,14.7T1066.17,446Z"/><path class="cls-2" d="M1271.52,453.39l25-2.18q1.79,15,8.27,24.67T1325,491.47a76.44,76.44,0,0,0,30.76,5.95q15.18,0,26.8-4.52t17.29-12.37a28.72,28.72,0,0,0,5.68-17.16A26.1,26.1,0,0,0,1400,446.9q-5.47-7-18-11.83-8.07-3.13-35.68-9.77t-38.69-12.51q-14.36-7.52-21.4-18.66a45.79,45.79,0,0,1-7-25,51,51,0,0,1,8.61-28.37q8.61-13.19,25.16-20a95.4,95.4,0,0,1,36.78-6.84q22.27,0,39.3,7.18t26.18,21.12a60.68,60.68,0,0,1,9.85,31.58l-25.43,1.92q-2.06-19-13.88-28.71t-34.93-9.71q-24.06,0-35.07,8.82t-11,21.26a22.77,22.77,0,0,0,7.79,17.77q7.65,7,40,14.29t44.36,12.78q17.5,8.07,25.84,20.44a49.8,49.8,0,0,1,8.34,28.51,54.47,54.47,0,0,1-9.16,30.14q-9.15,14.16-26.31,22T1357,521.21q-27.21,0-45.59-7.93a63.86,63.86,0,0,1-28.85-23.86A67.73,67.73,0,0,1,1271.52,453.39Z"/><path class="cls-2" d="M1517.89,495.78l3.56,21.73a91.25,91.25,0,0,1-18.6,2.19q-13.39,0-20.78-4.24a23.7,23.7,0,0,1-10.39-11.14q-3-6.9-3-29.05V391.73h-18.05V372.59h18.05V336.64l24.47-14.77v50.72h24.75v19.14h-24.75v84.91c0,7,.44,11.53,1.3,13.53a10.29,10.29,0,0,0,4.24,4.79q2.94,1.77,8.41,1.77A81.3,81.3,0,0,0,1517.89,495.78Z"/><path class="cls-2" d="M1532.79,445.19q0-40.33,22.42-59.75,18.74-16.12,45.67-16.13,29.94,0,48.94,19.62t19,54.21q0,28-8.41,44.09A59.51,59.51,0,0,1,1636,512.18a71.2,71.2,0,0,1-35.07,8.89q-30.5,0-49.29-19.55T1532.79,445.19Zm25.3,0q0,27.88,12.16,41.77a39,39,0,0,0,30.63,13.87q18.31,0,30.49-13.94t12.16-42.52q0-26.94-12.23-40.81t-30.42-13.88a39.11,39.11,0,0,0-30.63,13.81Q1558.09,417.3,1558.09,445.19Z"/><path class="cls-2" d="M1697.4,517.79V372.59h22.15v22q8.48-15.45,15.65-20.37a27.35,27.35,0,0,1,15.8-4.92q12.43,0,25.29,7.93l-8.48,22.83a35.23,35.23,0,0,0-18-5.33,23.5,23.5,0,0,0-14.5,4.85,26.39,26.39,0,0,0-9.16,13.47,96,96,0,0,0-4.1,28.71v76Z"/><path class="cls-2" d="M1890.31,471l25.43,3.14q-6,22.29-22.28,34.59t-41.57,12.31q-31.85,0-50.51-19.62t-18.67-55q0-36.65,18.87-56.87t49-20.24q29.12,0,47.58,19.83t18.45,55.78c0,1.46,0,3.64-.13,6.56H1808.14q1.36,23.92,13.54,36.64T1852,500.83q13.53,0,23.11-7.11T1890.31,471Zm-80.8-39.79h81.08q-1.65-18.32-9.3-27.48-11.76-14.2-30.49-14.21-17,0-28.51,11.34T1809.51,431.24Z"/><path class="cls-1" d="M537.67,284.38S465,325.74,497.33,410.26c7.59,19.85,26,39.42,52.09,50.75A230.71,230.71,0,0,1,536,494.76c-9.27,19.29-25.57,44.3-45,65.12,0,0-14.3,15.3-30.45,18.85-10,2.19-22.24,2.27-36.83-3,0,0-19.31-8.82-31.87-11.61-14-3.12-32.29-1.42-41.64,1.84s-28.76,11-28.76,11a51,51,0,0,1-50.28-6.23c-24.05-17.47-51.56-62.75-56.52-72.67-3.83-7.65-21.53-39.66-29.15-89.34-2.24-14.64-2.79-30.9-1.87-48.48,2.55-48.87,27.91-81.84,46.24-96.18a102.11,102.11,0,0,1,16.93-10.91c5.39-2.69,38.53-20.68,76.21-7.65,28.77,9.95,37.4,15,47,14.88a32.36,32.36,0,0,0,6.51-1.1,110.8,110.8,0,0,0,16.86-5.56,193.32,193.32,0,0,1,18.5-7.11,167.27,167.27,0,0,1,17.29-4.84c3-.65,5.95-1.19,9-1.57a70.18,70.18,0,0,1,10.35-.65,148.34,148.34,0,0,1,18,1.42A111.14,111.14,0,0,1,483,244.71a134.85,134.85,0,0,1,14.42,5.35c10.86,4.72,21.81,12.42,31.9,23.69Z"/><path class="cls-1" d="M455.65,131s-17.54,0-39.17,12.15c-24.29,13.63-56.58,47.77-51.2,91.11,0,0,10.83,2.77,27.61-3.55,1.82-.68,3.68-1.56,5.68-2.4,23.06-9.72,43.48-32.06,52.49-58C455.45,157.69,457.35,145.14,455.65,131Z"/></g></g></svg>