<svg xmlns="http://www.w3.org/2000/svg" viewBox="0 0 380.2 380.21"><defs><style>.cls-1{font-size:25.25px;stroke-width:0.4px;font-family:Aeonik-Bold, Aeonik;font-weight:700;}.cls-1,.cls-2{fill:#fff;stroke:#231f20;stroke-miterlimit:10;}.cls-2{stroke-width:0.4px;}</style></defs><g id="Layer_2" data-name="Layer 2"><g id="Layer_1-2" data-name="Layer 1"><g id="BWA_IM_WHITE" data-name="BWA IM WHITE"><text class="cls-1" transform="translate(154.97 326.53) rotate(-162.19)">B</text><text class="cls-1" transform="matrix(-0.91, -0.41, 0.41, -0.91, 140.44, 321.96)">A</text><text class="cls-1" transform="matrix(-0.86, -0.52, 0.52, -0.86, 124.79, 314.94)">N</text><text class="cls-1" transform="translate(110.09 306.04) rotate(-141.9)">K</text><text class="cls-1" transform="matrix(-0.73, -0.68, 0.68, -0.73, 96.9, 295.44)"> </text><text class="cls-1" transform="translate(92.25 291.86) rotate(-131.09)">W</text><text class="cls-1" transform="translate(76.47 273.05) rotate(-124.78)">I</text><text class="cls-1" transform="translate(72.63 267.81) rotate(-120.41)">T</text><text class="cls-1" transform="matrix(-0.41, -0.91, 0.91, -0.41, 65.13, 255.23)">H</text><text class="cls-1" transform="translate(58.35 239.37) rotate(-109.15)"> </text><text class="cls-1" transform="translate(56.17 233.84) rotate(-104.44)">A</text><text class="cls-1" transform="translate(51.98 217.18) rotate(-98.51)">L</text><text class="cls-1" transform="translate(49.82 204.96) rotate(-91.53)">M</text><text class="cls-1" transform="matrix(0.12, -0.99, 0.99, 0.12, 49.31, 183.01)">O</text><text class="cls-1" transform="translate(51.51 164.56) rotate(-75.92)">N</text><text class="cls-1" transform="translate(55.68 147.87) rotate(-68.97)">D</text><text class="cls-1" transform="translate(61.99 132.05) rotate(-64.3)"> </text><text class="cls-1" transform="matrix(0.47, -0.88, 0.88, 0.47, 64.62, 126.58)"> </text><text class="cls-1" transform="translate(67.48 121.23) rotate(-59.38)"> </text><text class="cls-1" transform="matrix(0.56, -0.83, 0.83, 0.56, 70.47, 116)">•</text><text class="cls-1" transform="translate(76.76 106.83) rotate(-52.44)"> </text><text class="cls-1" transform="matrix(0.64, -0.77, 0.77, 0.64, 80.46, 102.02)"> </text><text class="cls-1" transform="translate(84.38 97.35) rotate(-47.51)"> </text><text class="cls-1" transform="translate(88.25 92.81) rotate(-43.04)">B</text><text class="cls-1" transform="translate(99.33 82.33) rotate(-36.56)">A</text><text class="cls-1" transform="translate(113.06 72.11) rotate(-29.54)">N</text><text class="cls-1" transform="matrix(0.92, -0.38, 0.38, 0.92, 128.02, 63.62)">K</text><text class="cls-1" transform="matrix(0.95, -0.31, 0.31, 0.95, 143.7, 57.32)"> </text><text class="cls-1" transform="translate(149.11 55.05) rotate(-11.87)">W</text><text class="cls-1" transform="translate(173.23 50.47) rotate(-5.57)">I</text><text class="cls-1" transform="matrix(1, -0.02, 0.02, 1, 179.67, 49.67)">T</text><text class="cls-1" transform="translate(194.32 49.26) rotate(5.27)">H</text><text class="cls-1" transform="translate(211.48 51.06) rotate(10.03)"> </text><text class="cls-1" transform="matrix(0.97, 0.26, -0.26, 0.97, 217.37, 51.85)">A</text><text class="cls-1" transform="matrix(0.93, 0.36, -0.36, 0.93, 233.97, 56.34)">L</text><text class="cls-1" transform="translate(245.66 60.44) rotate(27.81)">M</text><text class="cls-1" transform="translate(265.04 70.76) rotate(36)">O</text><text class="cls-1" transform="matrix(0.73, 0.69, -0.69, 0.73, 280.08, 81.7)">N</text><text class="cls-1" transform="translate(292.62 93.47) rotate(50.18)">D</text><text class="cls-1" transform="matrix(0.58, 0.82, -0.82, 0.58, 303.35, 106.67)"> </text><text class="cls-1" transform="matrix(0.54, 0.84, -0.84, 0.54, 306.87, 111.66)"> </text><text class="cls-1" transform="translate(310.14 116.77) rotate(59.86)"> </text><text class="cls-1" transform="translate(313.24 121.92) rotate(63.37)">•</text><text class="cls-1" transform="matrix(0.39, 0.92, -0.92, 0.39, 318.15, 131.88)"> </text><text class="cls-1" transform="translate(320.54 137.47) rotate(69.37)"> </text><text class="cls-1" transform="translate(322.69 143.16) rotate(71.85)"> </text><text class="cls-1" transform="translate(324.74 148.76) rotate(76.29)">B</text><text class="cls-1" transform="translate(328.45 163.54) rotate(82.66)">A</text><text class="cls-1" transform="translate(330.67 180.53) rotate(89.64)">N</text><text class="cls-1" transform="translate(330.79 197.72) rotate(96.59)">K</text><text class="cls-1" transform="translate(328.64 214.5) rotate(101.28)"> </text><text class="cls-1" transform="translate(328.02 220.33) rotate(107.5)">W</text><text class="cls-1" transform="translate(320.19 243.61) rotate(113.79)">I</text><text class="cls-1" transform="matrix(-0.47, 0.88, -0.88, -0.47, 317.72, 249.62)">T</text><text class="cls-1" transform="matrix(-0.57, 0.82, -0.82, -0.57, 310.9, 262.58)">H</text><text class="cls-1" transform="matrix(-0.63, 0.77, -0.77, -0.63, 300.93, 276.68)"> </text><text class="cls-1" transform="translate(297.38 281.42) rotate(133.94)">A</text><text class="cls-1" transform="matrix(-0.77, 0.64, -0.64, -0.77, 285.37, 293.74)">L</text><text class="cls-1" transform="translate(276.1 301.95) rotate(147)">M</text><text class="cls-1" transform="translate(257.65 313.83) rotate(155.3)">O</text><text class="cls-1" transform="translate(240.74 321.6) rotate(162.61)">N</text><text class="cls-1" transform="translate(224.39 326.82) rotate(169.99)">D</text><text class="cls-1" transform="translate(207.56 329.66) rotate(174.08)"> </text><text class="cls-1" transform="translate(201.5 330.29) rotate(176.55)"> </text><text class="cls-1" transform="matrix(-1, 0.02, -0.02, -1, 195.44, 330.66)"> </text><text class="cls-1" transform="translate(189.43 330.85) rotate(-177.46)">•</text><text class="cls-1" transform="matrix(-0.99, -0.11, 0.11, -0.99, 178.34, 330.29)"> </text><text class="cls-1" transform="matrix(-0.99, -0.15, 0.15, -0.99, 172.28, 329.65)"> </text><text class="cls-1" transform="translate(166.28 328.75) rotate(-168.96)"> </text><path class="cls-2" d="M190.4,112.53l87.66,90.36V251.4h-40.9V220.33L173.49,154.7H160.26v96.7H119.35V112.53Z"/></g></g></g></svg>