<svg xmlns="http://www.w3.org/2000/svg" viewBox="0 0 379.73 379.74"><defs><style>.cls-1{font-size:25.25px;font-family:Aeonik-Bold, Aeonik;font-weight:700;}.cls-1,.cls-2{fill:#662d91;}</style></defs><g id="Layer_2" data-name="Layer 2"><g id="Layer_1-2" data-name="Layer 1"><g id="BWA_IM_PURPLE" data-name="BWA IM PURPLE"><text class="cls-1" transform="translate(154.74 326.3) rotate(-162.19)">B</text><text class="cls-1" transform="translate(140.18 321.72) rotate(-155.72)">A</text><text class="cls-1" transform="translate(124.56 314.7) rotate(-148.77)">N</text><text class="cls-1" transform="translate(109.85 305.81) rotate(-141.9)">K</text><text class="cls-1" transform="matrix(-0.73, -0.68, 0.68, -0.73, 96.67, 295.21)"> </text><text class="cls-1" transform="translate(92.01 291.63) rotate(-131.09)">W</text><text class="cls-1" transform="translate(76.24 272.82) rotate(-124.78)">I</text><text class="cls-1" transform="matrix(-0.51, -0.86, 0.86, -0.51, 72.39, 267.57)">T</text><text class="cls-1" transform="translate(64.9 255) rotate(-113.89)">H</text><text class="cls-1" transform="matrix(-0.33, -0.94, 0.94, -0.33, 58.11, 239.14)"> </text><text class="cls-1" transform="translate(55.93 233.6) rotate(-104.44)">A</text><text class="cls-1" transform="translate(51.75 216.94) rotate(-98.51)">L</text><text class="cls-1" transform="translate(49.59 204.72) rotate(-91.53)">M</text><text class="cls-1" transform="matrix(0.12, -0.99, 0.99, 0.12, 49.08, 182.81)">O</text><text class="cls-1" transform="translate(51.28 164.33) rotate(-75.92)">N</text><text class="cls-1" transform="translate(55.45 147.63) rotate(-68.97)">D</text><text class="cls-1" transform="translate(61.76 131.82) rotate(-64.3)"> </text><text class="cls-1" transform="translate(64.39 126.34) rotate(-61.84)"> </text><text class="cls-1" transform="translate(67.25 120.99) rotate(-59.38)"> </text><text class="cls-1" transform="matrix(0.56, -0.83, 0.83, 0.56, 70.24, 115.77)">•</text><text class="cls-1" transform="matrix(0.61, -0.79, 0.79, 0.61, 76.53, 106.6)"> </text><text class="cls-1" transform="matrix(0.64, -0.77, 0.77, 0.64, 80.23, 101.79)"> </text><text class="cls-1" transform="matrix(0.68, -0.74, 0.74, 0.68, 84.14, 97.12)"> </text><text class="cls-1" transform="translate(88 92.6) rotate(-43.06)">B</text><text class="cls-1" transform="translate(99.1 82.1) rotate(-36.56)">A</text><text class="cls-1" transform="translate(112.83 71.87) rotate(-29.54)">N</text><text class="cls-1" transform="matrix(0.92, -0.38, 0.38, 0.92, 127.78, 63.38)">K</text><text class="cls-1" transform="matrix(0.95, -0.31, 0.31, 0.95, 143.46, 57.09)"> </text><text class="cls-1" transform="translate(148.87 54.81) rotate(-11.87)">W</text><text class="cls-1" transform="translate(173 50.24) rotate(-5.57)">I</text><text class="cls-1" transform="translate(179.44 49.44) rotate(-1.24)">T</text><text class="cls-1" transform="translate(194.08 49.03) rotate(5.27)">H</text><text class="cls-1" transform="translate(211.25 50.83) rotate(10.03)"> </text><text class="cls-1" transform="translate(217.14 51.62) rotate(14.79)">A</text><text class="cls-1" transform="translate(233.73 56.11) rotate(20.83)">L</text><text class="cls-1" transform="translate(245.42 60.21) rotate(27.81)">M</text><text class="cls-1" transform="matrix(0.81, 0.59, -0.59, 0.81, 264.8, 70.52)">O</text><text class="cls-1" transform="matrix(0.73, 0.69, -0.69, 0.73, 279.85, 81.47)">N</text><text class="cls-1" transform="translate(292.37 93.22) rotate(50.17)">D</text><text class="cls-1" transform="matrix(0.58, 0.82, -0.82, 0.58, 303.12, 106.44)"> </text><text class="cls-1" transform="translate(306.63 111.42) rotate(57.36)"> </text><text class="cls-1" transform="translate(309.91 116.53) rotate(59.86)"> </text><text class="cls-1" transform="translate(313 121.69) rotate(63.37)">•</text><text class="cls-1" transform="translate(317.92 131.64) rotate(66.88)"> </text><text class="cls-1" transform="translate(320.31 137.24) rotate(69.37)"> </text><text class="cls-1" transform="translate(322.45 142.92) rotate(71.85)"> </text><text class="cls-1" transform="translate(324.51 148.52) rotate(76.29)">B</text><text class="cls-1" transform="translate(328.21 163.31) rotate(82.66)">A</text><text class="cls-1" transform="matrix(0.01, 1, -1, 0.01, 330.43, 180.3)">N</text><text class="cls-1" transform="translate(330.56 197.49) rotate(96.59)">K</text><text class="cls-1" transform="translate(328.41 214.27) rotate(101.28)"> </text><text class="cls-1" transform="translate(327.79 220.1) rotate(107.5)">W</text><text class="cls-1" transform="matrix(-0.4, 0.92, -0.92, -0.4, 319.95, 243.37)">I</text><text class="cls-1" transform="matrix(-0.47, 0.88, -0.88, -0.47, 317.48, 249.39)">T</text><text class="cls-1" transform="matrix(-0.57, 0.82, -0.82, -0.57, 310.67, 262.35)">H</text><text class="cls-1" transform="matrix(-0.63, 0.77, -0.77, -0.63, 300.7, 276.45)"> </text><text class="cls-1" transform="translate(297.14 281.19) rotate(133.94)">A</text><text class="cls-1" transform="matrix(-0.77, 0.64, -0.64, -0.77, 285.13, 293.51)">L</text><text class="cls-1" transform="translate(275.87 301.71) rotate(147)">M</text><text class="cls-1" transform="translate(257.41 313.6) rotate(155.3)">O</text><text class="cls-1" transform="translate(240.5 321.36) rotate(162.61)">N</text><text class="cls-1" transform="translate(224.15 326.59) rotate(169.99)">D</text><text class="cls-1" transform="translate(207.33 329.43) rotate(174.08)"> </text><text class="cls-1" transform="translate(201.27 330.06) rotate(176.55)"> </text><text class="cls-1" transform="matrix(-1, 0.02, -0.02, -1, 195.21, 330.43)"> </text><text class="cls-1" transform="translate(189.19 330.61) rotate(-177.46)">•</text><text class="cls-1" transform="matrix(-0.99, -0.11, 0.11, -0.99, 178.11, 330.05)"> </text><text class="cls-1" transform="translate(172.05 329.41) rotate(-171.45)"> </text><text class="cls-1" transform="translate(166.05 328.52) rotate(-168.96)"> </text><path class="cls-2" d="M190.17,112.29l87.66,90.37v48.51H236.92V220.1l-63.67-65.64H160v96.71H119.12V112.29Z"/></g></g></g></svg>