<svg xmlns="http://www.w3.org/2000/svg" viewBox="0 0 381.33 381.35"><defs><style>.cls-1{font-size:25.25px;stroke-width:1.37px;font-family:Aeonik-Bold, Aeonik;font-weight:700;}.cls-1,.cls-2{fill:#111010;stroke:#231f20;stroke-miterlimit:10;}.cls-2{stroke-width:1.37px;}</style></defs><g id="Layer_2" data-name="Layer 2"><g id="Layer_1-2" data-name="Layer 1"><g id="BWA_IM_BLACK" data-name="BWA IM BLACK"><text class="cls-1" transform="translate(155.54 327.1) rotate(-162.19)">B</text><text class="cls-1" transform="translate(140.98 322.52) rotate(-155.72)">A</text><text class="cls-1" transform="translate(125.36 315.51) rotate(-148.77)">N</text><text class="cls-1" transform="translate(110.66 306.61) rotate(-141.9)">K</text><text class="cls-1" transform="translate(97.47 296.01) rotate(-137.27)"> </text><text class="cls-1" transform="translate(92.82 292.43) rotate(-131.09)">W</text><text class="cls-1" transform="translate(77.04 273.62) rotate(-124.78)">I</text><text class="cls-1" transform="matrix(-0.51, -0.86, 0.86, -0.51, 73.2, 268.38)">T</text><text class="cls-1" transform="matrix(-0.41, -0.91, 0.91, -0.41, 65.7, 255.8)">H</text><text class="cls-1" transform="matrix(-0.33, -0.94, 0.94, -0.33, 58.92, 239.94)"> </text><text class="cls-1" transform="translate(56.73 234.41) rotate(-104.44)">A</text><text class="cls-1" transform="translate(52.55 217.75) rotate(-98.51)">L</text><text class="cls-1" transform="translate(50.39 205.53) rotate(-91.53)">M</text><text class="cls-1" transform="matrix(0.12, -0.99, 0.99, 0.12, 49.88, 183.58)">O</text><text class="cls-1" transform="translate(52.08 165.13) rotate(-75.92)">N</text><text class="cls-1" transform="translate(56.25 148.43) rotate(-68.97)">D</text><text class="cls-1" transform="translate(62.56 132.62) rotate(-64.3)"> </text><text class="cls-1" transform="matrix(0.47, -0.88, 0.88, 0.47, 65.19, 127.14)"> </text><text class="cls-1" transform="translate(68.05 121.79) rotate(-59.38)"> </text><text class="cls-1" transform="matrix(0.56, -0.83, 0.83, 0.56, 71.04, 116.57)">•</text><text class="cls-1" transform="matrix(0.61, -0.79, 0.79, 0.61, 77.33, 107.4)"> </text><text class="cls-1" transform="matrix(0.64, -0.77, 0.77, 0.64, 81.03, 102.59)"> </text><text class="cls-1" transform="matrix(0.68, -0.74, 0.74, 0.68, 84.95, 97.92)"> </text><text class="cls-1" transform="translate(88.82 93.38) rotate(-43.04)">B</text><text class="cls-1" transform="translate(99.9 82.9) rotate(-36.56)">A</text><text class="cls-1" transform="translate(113.63 72.68) rotate(-29.54)">N</text><text class="cls-1" transform="matrix(0.92, -0.38, 0.38, 0.92, 128.59, 64.18)">K</text><text class="cls-1" transform="translate(144.27 57.89) rotate(-17.91)"> </text><text class="cls-1" transform="translate(149.68 55.62) rotate(-11.87)">W</text><text class="cls-1" transform="translate(173.83 51.04) rotate(-5.56)">I</text><text class="cls-1" transform="translate(180.24 50.24) rotate(-1.24)">T</text><text class="cls-1" transform="translate(194.89 49.83) rotate(5.27)">H</text><text class="cls-1" transform="translate(212.05 51.63) rotate(10.03)"> </text><text class="cls-1" transform="translate(217.94 52.42) rotate(14.79)">A</text><text class="cls-1" transform="translate(234.54 56.91) rotate(20.83)">L</text><text class="cls-1" transform="translate(246.23 61.01) rotate(27.81)">M</text><text class="cls-1" transform="matrix(0.81, 0.59, -0.59, 0.81, 265.61, 71.33)">O</text><text class="cls-1" transform="matrix(0.73, 0.69, -0.69, 0.73, 280.65, 82.27)">N</text><text class="cls-1" transform="matrix(0.64, 0.77, -0.77, 0.64, 293.19, 94.04)">D</text><text class="cls-1" transform="matrix(0.58, 0.82, -0.82, 0.58, 303.92, 107.24)"> </text><text class="cls-1" transform="translate(307.43 112.22) rotate(57.36)"> </text><text class="cls-1" transform="translate(310.71 117.34) rotate(59.86)"> </text><text class="cls-1" transform="translate(313.81 122.49) rotate(63.37)">•</text><text class="cls-1" transform="translate(318.72 132.45) rotate(66.88)"> </text><text class="cls-1" transform="translate(321.11 138.04) rotate(69.37)"> </text><text class="cls-1" transform="translate(323.26 143.73) rotate(71.85)"> </text><text class="cls-1" transform="translate(325.31 149.33) rotate(76.29)">B</text><text class="cls-1" transform="translate(329.02 164.11) rotate(82.66)">A</text><text class="cls-1" transform="translate(331.24 181.1) rotate(89.64)">N</text><text class="cls-1" transform="matrix(-0.11, 0.99, -0.99, -0.11, 331.36, 198.29)">K</text><text class="cls-1" transform="translate(329.21 215.07) rotate(101.28)"> </text><text class="cls-1" transform="translate(328.59 220.9) rotate(107.5)">W</text><text class="cls-1" transform="translate(320.75 244.18) rotate(113.79)">I</text><text class="cls-1" transform="matrix(-0.47, 0.88, -0.88, -0.47, 318.29, 250.19)">T</text><text class="cls-1" transform="matrix(-0.57, 0.82, -0.82, -0.57, 311.47, 263.15)">H</text><text class="cls-1" transform="translate(301.5 277.25) rotate(129.24)"> </text><text class="cls-1" transform="translate(297.95 281.99) rotate(133.94)">A</text><text class="cls-1" transform="matrix(-0.77, 0.64, -0.64, -0.77, 285.93, 294.31)">L</text><text class="cls-1" transform="matrix(-0.84, 0.54, -0.54, -0.84, 276.67, 302.52)">M</text><text class="cls-1" transform="matrix(-0.91, 0.42, -0.42, -0.91, 258.22, 314.4)">O</text><text class="cls-1" transform="translate(241.3 322.17) rotate(162.61)">N</text><text class="cls-1" transform="translate(224.96 327.39) rotate(169.99)">D</text><text class="cls-1" transform="translate(208.13 330.23) rotate(174.08)"> </text><text class="cls-1" transform="translate(202.07 330.86) rotate(176.55)"> </text><text class="cls-1" transform="translate(196.01 331.23) rotate(179.03)"> </text><text class="cls-1" transform="matrix(-1, -0.04, 0.04, -1, 190, 331.42)">•</text><text class="cls-1" transform="translate(178.91 330.86) rotate(-173.95)"> </text><text class="cls-1" transform="matrix(-0.99, -0.15, 0.15, -0.99, 172.85, 330.22)"> </text><text class="cls-1" transform="translate(166.85 329.32) rotate(-168.96)"> </text><path class="cls-2" d="M191,113.1l87.66,90.36V252H237.72V220.9l-63.67-65.63H160.83V252H119.92V113.1Z"/></g></g></g></svg>