<?xml version="1.0" standalone="no"?>
<!DOCTYPE svg PUBLIC "-//W3C//DTD SVG 20010904//EN"
 "http://www.w3.org/TR/2001/REC-SVG-20010904/DTD/svg10.dtd">
<svg version="1.0" xmlns="http://www.w3.org/2000/svg"
 width="1298.000000pt" height="1298.000000pt" viewBox="0 0 1298.000000 1298.000000"
 preserveAspectRatio="xMidYMid meet">
<metadata>
Created by potrace 1.14, written by Peter Selinger 2001-2017
</metadata>
<g transform="translate(0.000000,1298.000000) scale(0.100000,-0.100000)"
fill="#000000" stroke="none">
<path d="M5 12160 c-1 -3 -2 -2558 -2 -5677 l0 -5673 1673 0 1672 0 1 3943 c0
2168 0 3947 1 3952 0 7 183 10 538 10 l539 0 62 -65 c35 -36 174 -180 310
-320 137 -140 279 -287 317 -326 38 -40 175 -181 306 -315 130 -134 274 -283
320 -330 213 -221 601 -621 980 -1010 135 -140 279 -288 318 -329 40 -41 186
-191 324 -333 138 -142 287 -296 331 -342 44 -46 193 -199 330 -340 138 -142
286 -295 330 -340 44 -46 188 -194 320 -330 375 -387 395 -407 655 -675 135
-139 257 -265 273 -281 l27 -27 0 -1271 0 -1271 1673 0 1674 0 0 1984 0 1984
-120 123 c-66 68 -233 241 -372 384 -139 143 -292 301 -340 350 -48 50 -158
163 -244 251 -285 294 -638 658 -721 744 -45 47 -200 206 -343 354 -144 148
-287 295 -317 326 -30 32 -170 175 -310 320 -140 144 -289 297 -330 340 -41
43 -184 190 -317 326 -133 137 -278 287 -323 334 -45 47 -193 200 -330 340
-136 140 -283 292 -326 337 -44 45 -188 193 -320 330 -133 136 -279 286 -324
333 -45 47 -194 200 -330 340 -136 140 -283 292 -326 337 -44 45 -188 193
-320 330 -133 136 -283 291 -334 343 -50 52 -199 205 -330 340 -130 135 -294
303 -362 374 l-124 129 -2903 1 c-1597 1 -2904 -1 -2906 -4z"/>
</g>
</svg>
