<svg xmlns="http://www.w3.org/2000/svg" viewBox="0 0 512.75 101.36"><defs><style>.cls-1{fill:#662d91;}</style></defs><g id="Layer_2" data-name="Layer 2"><g id="Layer_1-2" data-name="Layer 1"><g id="LOGO_CHOICE_1" data-name="LOGO CHOICE 1"><path class="cls-1" d="M49.34,4.93l60.87,62.75v33.68H81.8V79.78L37.59,34.21H28.41v67.15H0V4.93Z"/><path class="cls-1" d="M350.39,73.55a30.16,30.16,0,0,1-2.5,10.87,25.83,25.83,0,0,1-6.39,8.83,30.33,30.33,0,0,1-10,5.93A38.31,38.31,0,0,1,318,101.36h-8a38.91,38.91,0,0,1-13.94-2.31,29.34,29.34,0,0,1-10.2-6.32,26.37,26.37,0,0,1-6.25-9.36A30.87,30.87,0,0,1,277.5,72V53.12h.13a29.45,29.45,0,0,1,2.5-10.81,26.37,26.37,0,0,1,6.31-8.76,29.65,29.65,0,0,1,10-5.94A39.15,39.15,0,0,1,310,25.44h8a38.42,38.42,0,0,1,13.88,2.31A30,30,0,0,1,342,34a25.67,25.67,0,0,1,6.25,9.29,30.87,30.87,0,0,1,2.11,11.4l.13,18.85ZM318,82a9.68,9.68,0,0,0,3.85-.79A10.25,10.25,0,0,0,325.13,79a11,11,0,0,0,2.25-3.23,9,9,0,0,0,.86-3.82V54.7a8.59,8.59,0,0,0-.86-3.76,11.38,11.38,0,0,0-2.25-3.16,10.25,10.25,0,0,0-3.24-2.17,9.68,9.68,0,0,0-3.85-.79H310a9.89,9.89,0,0,0-7.15,3,9.37,9.37,0,0,0-3.05,6.92V72a9,9,0,0,0,.86,3.82A11.21,11.21,0,0,0,302.88,79a10.18,10.18,0,0,0,3.25,2.17A9.6,9.6,0,0,0,310,82Z"/><path class="cls-1" d="M502.64,0,490.21,12.81V28.07H469a28.57,28.57,0,0,0-11.4,2.31A29.29,29.29,0,0,0,442,45.93a28.45,28.45,0,0,0-2.31,11.41V73.68a29.9,29.9,0,0,0,2.77,10.81,29.07,29.07,0,0,0,6.33,8.76A29.73,29.73,0,0,0,458,99.18a28.26,28.26,0,0,0,11,2.18h43.76V0ZM490.21,82.25H469a9,9,0,0,1-3.82-.86,11.24,11.24,0,0,1-3.23-2.26,10.22,10.22,0,0,1-2.17-3.26A9.68,9.68,0,0,1,459,72V57.28a9.26,9.26,0,0,1,.79-3.79,10.45,10.45,0,0,1,2.17-3.18,11.24,11.24,0,0,1,3.23-2.26,9,9,0,0,1,3.82-.86h21.22Z"/><path class="cls-1" d="M408.51,101.36V56.15a9.37,9.37,0,0,0-3.05-6.92,9.75,9.75,0,0,0-7-3h-4.9q-6.35,0-9.86,3.09t-3.51,9.82H380v42.18H357.9V40.67l12.21-12.6H380l.09,4a19.33,19.33,0,0,1,5.79-3.76,19.57,19.57,0,0,1,7.63-1.38h4.87a38.52,38.52,0,0,1,13.81,2.31,29,29,0,0,1,10.13,6.26,26.17,26.17,0,0,1,6.19,9.29,30.87,30.87,0,0,1,2.1,11.4l.14,45.21Z"/><path class="cls-1" d="M270.51,56.15v45.21H248.23l-.13-45.21a9.39,9.39,0,0,0-3-6.92,9.69,9.69,0,0,0-7-3h-4.74q-6.33,0-9.89,3.09t-3.55,9.82v42.18H197.49V56.15a9.39,9.39,0,0,0-3-6.92,9.7,9.7,0,0,0-7-3h-4.88q-6.32,0-9.82,3.09t-3.49,9.82v42.18H146.87V40.67l12.22-12.6h10.19v4a18.61,18.61,0,0,1,13.31-5.14h4.88a39.09,39.09,0,0,1,12.92,2,32.45,32.45,0,0,1,9.88,5.4,32.24,32.24,0,0,1,9.95-5.4,40.16,40.16,0,0,1,13.12-2h4.74A38.55,38.55,0,0,1,252,29.2a30.08,30.08,0,0,1,10.15,6.26,25.7,25.7,0,0,1,6.26,9.29A30.67,30.67,0,0,1,270.51,56.15Z"/><polygon class="cls-1" points="138.67 0 138.67 101.36 116.26 101.36 116.26 12.76 128.64 0 138.67 0"/></g></g></g></svg>