<svg xmlns="http://www.w3.org/2000/svg" viewBox="0 0 467.57 93.53"><defs><style>.cls-1{fill:#111010;stroke:#231f20;stroke-miterlimit:10;stroke-width:1.37px;}</style></defs><g id="Layer_2" data-name="Layer 2"><g id="Layer_1-2" data-name="Layer 1"><g id="LOGO_CHOICE_1" data-name="LOGO CHOICE 1"><path class="cls-1" d="M45.54,5.17l55.35,57.05V92.84H75.06V73.23L34.86,31.79H26.51V92.84H.68V5.17Z"/><path class="cls-1" d="M319.26,67.56A27.46,27.46,0,0,1,317,77.44a23.52,23.52,0,0,1-5.8,8,27.66,27.66,0,0,1-9.1,5.39,35,35,0,0,1-12.26,2h-7.29a35.69,35.69,0,0,1-12.69-2.09A27,27,0,0,1,260.58,85a24,24,0,0,1-5.68-8.51A27.88,27.88,0,0,1,253,66.12V49h.12a27,27,0,0,1,2.27-9.83,24.27,24.27,0,0,1,5.74-8,27.14,27.14,0,0,1,9.09-5.39,35.6,35.6,0,0,1,12.33-2h7.29a35.13,35.13,0,0,1,12.62,2.1,27.55,27.55,0,0,1,9.21,5.69,23.46,23.46,0,0,1,5.69,8.45,28.14,28.14,0,0,1,1.91,10.37l.12,17.14Zm-29.4,7.67a8.8,8.8,0,0,0,3.49-.72,9.33,9.33,0,0,0,2.95-2,10.18,10.18,0,0,0,2-2.94,8,8,0,0,0,.79-3.47V50.42a7.66,7.66,0,0,0-.79-3.42,10.41,10.41,0,0,0-2-2.87,9.33,9.33,0,0,0-2.95-2,8.8,8.8,0,0,0-3.49-.72h-7.35a9,9,0,0,0-6.5,2.7,8.48,8.48,0,0,0-2.77,6.29v15.7a8.1,8.1,0,0,0,.78,3.47,10.21,10.21,0,0,0,2.05,2.94,9.33,9.33,0,0,0,2.95,2,8.8,8.8,0,0,0,3.49.72Z"/><path class="cls-1" d="M457.7.68,446.39,12.33V26.21H427.1a26,26,0,0,0-10.36,2.1A26.61,26.61,0,0,0,402.6,42.44a25.92,25.92,0,0,0-2.1,10.38V67.68A27,27,0,0,0,403,77.5a26.25,26.25,0,0,0,5.75,8,27,27,0,0,0,8.33,5.39,25.64,25.64,0,0,0,10,2h39.79V.68ZM446.39,75.47H427.1a8.32,8.32,0,0,1-3.47-.78,10.24,10.24,0,0,1-2.94-2.06,9.19,9.19,0,0,1-2-3,8.84,8.84,0,0,1-.72-3.5V52.76a8.42,8.42,0,0,1,.72-3.44,9.33,9.33,0,0,1,2-2.89,10.24,10.24,0,0,1,2.94-2.06,8.16,8.16,0,0,1,3.47-.78h19.29Z"/><path class="cls-1" d="M372.11,92.84V51.74a8.57,8.57,0,0,0-2.77-6.3A8.89,8.89,0,0,0,363,42.75H358.5q-5.78,0-9,2.81t-3.19,8.93h-.11V92.84H326.1V37.66l11.1-11.45h9l.08,3.6a17.42,17.42,0,0,1,5.26-3.42,17.72,17.72,0,0,1,6.94-1.26h4.43a35,35,0,0,1,12.55,2.1,26.29,26.29,0,0,1,9.21,5.69,23.74,23.74,0,0,1,5.63,8.45,28.14,28.14,0,0,1,1.91,10.37l.13,41.1Z"/><path class="cls-1" d="M246.64,51.74v41.1H226.38l-.12-41.1a8.59,8.59,0,0,0-2.75-6.3,8.82,8.82,0,0,0-6.36-2.69h-4.31q-5.75,0-9,2.81t-3.23,8.93V92.84H180.25V51.74a8.56,8.56,0,0,0-2.76-6.3,8.8,8.8,0,0,0-6.35-2.69H166.7q-5.74,0-8.93,2.81t-3.17,8.93V92.84H134.22V37.66l11.11-11.45h9.27v3.6a16.93,16.93,0,0,1,12.1-4.68h4.44a35.48,35.48,0,0,1,11.74,1.8,29.61,29.61,0,0,1,9,4.91,29.3,29.3,0,0,1,9-4.91,36.57,36.57,0,0,1,11.93-1.8h4.31a35.08,35.08,0,0,1,12.65,2.1A27.32,27.32,0,0,1,239,32.92a23.38,23.38,0,0,1,5.69,8.45A27.94,27.94,0,0,1,246.64,51.74Z"/><polygon class="cls-1" points="126.77 0.68 126.77 92.84 106.39 92.84 106.39 12.29 117.65 0.68 126.77 0.68"/></g></g></g></svg>