<svg xmlns="http://www.w3.org/2000/svg" viewBox="0 0 466.2 92.16"><defs><style>.cls-1{fill:#fff;}</style></defs><g id="Layer_2" data-name="Layer 2"><g id="Layer_1-2" data-name="Layer 1"><g id="LOGO_CHOICE_1" data-name="LOGO CHOICE 1"><path class="cls-1" d="M44.86,4.48,100.2,61.53V92.16H74.37V72.54L34.18,31.11H25.83V92.16H0V4.48Z"/><path class="cls-1" d="M318.58,66.87a27.31,27.31,0,0,1-2.28,9.89,23.48,23.48,0,0,1-5.8,8,27.68,27.68,0,0,1-9.09,5.39,35.07,35.07,0,0,1-12.26,2h-7.3a35.41,35.41,0,0,1-12.68-2.1,26.78,26.78,0,0,1-9.27-5.75,23.93,23.93,0,0,1-5.68-8.51,27.93,27.93,0,0,1-1.91-10.37V48.3h.11a26.81,26.81,0,0,1,2.28-9.83,24,24,0,0,1,5.74-8,26.88,26.88,0,0,1,9.09-5.39,35.54,35.54,0,0,1,12.32-2h7.3a35,35,0,0,1,12.62,2.1A27.39,27.39,0,0,1,311,30.92a23.35,23.35,0,0,1,5.68,8.45,27.89,27.89,0,0,1,1.92,10.36l.12,17.14Zm-29.41,7.67a8.84,8.84,0,0,0,3.5-.72,9.43,9.43,0,0,0,2.94-2,10,10,0,0,0,2.05-2.94,8.17,8.17,0,0,0,.78-3.48V49.73a7.77,7.77,0,0,0-.78-3.41,10.29,10.29,0,0,0-2.05-2.88,9.1,9.1,0,0,0-2.94-2,8.84,8.84,0,0,0-3.5-.72h-7.34a9,9,0,0,0-6.5,2.69,8.51,8.51,0,0,0-2.77,6.29v15.7a8.17,8.17,0,0,0,.78,3.48,10,10,0,0,0,2.05,2.94,9.36,9.36,0,0,0,2.95,2,8.76,8.76,0,0,0,3.49.72Z"/><path class="cls-1" d="M457,0l-11.3,11.65V25.52H426.42a26,26,0,0,0-10.37,2.1,26.59,26.59,0,0,0-14.14,14.14,25.87,25.87,0,0,0-2.1,10.37V67a27.22,27.22,0,0,0,2.52,9.83,26.41,26.41,0,0,0,5.76,8,27,27,0,0,0,8.32,5.4,25.9,25.9,0,0,0,10,2H466.2V0Zm-11.3,74.78H426.42a8.21,8.21,0,0,1-3.48-.78A10.22,10.22,0,0,1,420,72a9.42,9.42,0,0,1-2-3,8.84,8.84,0,0,1-.72-3.5V52.08a8.5,8.5,0,0,1,.72-3.45,9.66,9.66,0,0,1,2-2.89,10.22,10.22,0,0,1,2.93-2.05,8.21,8.21,0,0,1,3.48-.78h19.29Z"/><path class="cls-1" d="M371.43,92.16V51.05a8.51,8.51,0,0,0-2.78-6.29,8.85,8.85,0,0,0-6.38-2.69h-4.45q-5.77,0-9,2.81t-3.19,8.93h-.12V92.16H325.41V37l11.1-11.46h9l.08,3.6a16.89,16.89,0,0,1,12.2-4.67h4.43a35.08,35.08,0,0,1,12.56,2.1A26.38,26.38,0,0,1,384,32.24a23.79,23.79,0,0,1,5.63,8.45,28.08,28.08,0,0,1,1.91,10.36l.12,41.11Z"/><path class="cls-1" d="M246,51.05V92.16H225.7l-.12-41.11a8.52,8.52,0,0,0-2.76-6.29,8.78,8.78,0,0,0-6.35-2.69h-4.31c-3.84,0-6.83.94-9,2.81s-3.23,4.85-3.23,8.93V92.16H179.56V51.05a8.51,8.51,0,0,0-2.75-6.29,8.84,8.84,0,0,0-6.36-2.69H166q-5.75,0-8.93,2.81t-3.18,8.93V92.16H133.54V37l11.11-11.46h9.26v3.6A16.91,16.91,0,0,1,166,24.45h4.43a35.58,35.58,0,0,1,11.75,1.8,29.44,29.44,0,0,1,9,4.91,29.47,29.47,0,0,1,9-4.91,36.53,36.53,0,0,1,11.93-1.8h4.31a35.08,35.08,0,0,1,12.65,2.1,27.28,27.28,0,0,1,9.22,5.69,23.44,23.44,0,0,1,5.7,8.45A27.88,27.88,0,0,1,246,51.05Z"/><polygon class="cls-1" points="126.08 0 126.08 92.16 105.71 92.16 105.71 11.6 116.96 0 126.08 0"/></g></g></g></svg>